# xmcd CD database file
#
# Track frame offsets:
#	182
#	17290
#	37200
#	47860
#	67557
#	79687
#	92997
#	108665
#	129490
#	137402
#	147807
#
# Disc length: 2109 seconds
#
# Revision: 0
# Processed by: cddbd v1.5.2PL0 Copyright (c) Steve Scherf et al.
# Submitted via: CDex 1.51
#
DISCID=8c083b0b
DTITLE=John Katzbeck - Memorial Album
DYEAR=1993
DGENRE=Country
TTITLE0=Oreo
TTITLE1=Woman
TTITLE2=She Doesn't Know I'm Beautiful
TTITLE3=The Hair
TTITLE4=Why?
TTITLE5=Grandma's Bingo Night
TTITLE6=Papa Looked Like Mama
TTITLE7=Dolly
TTITLE8=Weddin Plans, Again
TTITLE9=One Of A Kind, Iron Mike Ditka
TTITLE10=My Wife's Dog Mookie
EXTD=YEAR: 1993
EXTT0=
EXTT1=
EXTT2=
EXTT3=
EXTT4=
EXTT5=
EXTT6=
EXTT7=
EXTT8=
EXTT9=
EXTT10=
PLAYORDER=
